<svg xmlns="http://www.w3.org/2000/svg" xmlns:xlink="http://www.w3.org/1999/xlink" width="160" height="48" viewBox="0 0 160 48"><defs><clipPath id="a"><rect width="160" height="48" transform="translate(-20658 -21074.02)" fill="#fff" stroke="#707070" stroke-width="1"/></clipPath></defs><g transform="translate(20658 21074.02)" clip-path="url(#a)"><g transform="translate(-20658 -21074)"><g transform="translate(0 0)"><g transform="translate(3.939 12.794)"><path d="M83.894,58.223v15.44H78.27V55.089a.1.1,0,0,1,.153-.084Z" transform="translate(-78.27 -54.992)" fill="#e5af7a"/><path d="M114.258,65.843H108.88a11.707,11.707,0,0,0-4.775.683,7.136,7.136,0,0,0-3.07,2.559c-.08.12-.155.241-.228.365q-.109-.185-.23-.365a7.131,7.131,0,0,0-3.068-2.559,11.72,11.72,0,0,0-4.777-.683H78.27v2.584a2.884,2.884,0,0,0,2.938,2.826H92.733a11.75,11.75,0,0,1,4.777.683,7.142,7.142,0,0,1,3.068,2.559q.12.18.23.365c.073-.123.148-.245.228-.365a7.147,7.147,0,0,1,3.07-2.559,11.737,11.737,0,0,1,4.775-.683h9.939l4.323-5.41h-8.884Z" transform="translate(-78.27 -47.26)" fill="#72604d"/></g><path d="M102.533,73.344,77.648,62.324a2.591,2.591,0,0,1,.059-4.8l23.221-9.679a4.188,4.188,0,0,1,3.21,0l28.839,12.019ZM85,60l17.533,7.765L120.064,60l-17.531-7.307Zm-5.2,2.166-.007,0Zm.044-4.448,0,0Z" transform="translate(-76.057 -47.522)" fill="#ff9a36"/></g><g transform="translate(56.422 14.343)"><path d="M6.086-8.335H8.68V.05a3.891,3.891,0,0,1-.532,2.042,3.553,3.553,0,0,1-1.5,1.368,4.836,4.836,0,0,1-2.187.482,4.565,4.565,0,0,1-3.112-.977A3.482,3.482,0,0,1,.234.2h2.61a1.9,1.9,0,0,0,.389,1.314,1.591,1.591,0,0,0,1.227.424,1.513,1.513,0,0,0,1.184-.491A2.021,2.021,0,0,0,6.086.05ZM10.348-.807a5.17,5.17,0,0,1,.536-2.387,3.834,3.834,0,0,1,1.543-1.622,4.64,4.64,0,0,1,2.338-.574,4.354,4.354,0,0,1,3.09,1.115,4.394,4.394,0,0,1,1.336,3.028l.017.616a4.6,4.6,0,0,1-1.2,3.323,4.26,4.26,0,0,1-3.224,1.252A4.282,4.282,0,0,1,11.554,2.7,4.677,4.677,0,0,1,10.348-.7Zm2.5.171a3.267,3.267,0,0,0,.5,1.962A1.676,1.676,0,0,0,14.782,2,1.68,1.68,0,0,0,16.2,1.334a3.572,3.572,0,0,0,.51-2.145A3.235,3.235,0,0,0,16.2-2.76a1.679,1.679,0,0,0-1.435-.691,1.652,1.652,0,0,0-1.418.687A3.632,3.632,0,0,0,12.846-.636Zm13.5,3.5a3.187,3.187,0,0,1-2.559,1.081,3.018,3.018,0,0,1-2.295-.832A3.465,3.465,0,0,1,20.686.674v-5.9h2.5V.6Q23.184,2,24.515,2a1.823,1.823,0,0,0,1.746-.849V-5.224h2.507v9H26.417Zm9.56-5.831a7.048,7.048,0,0,0-.9-.067,1.847,1.847,0,0,0-1.858.923V3.777h-2.5v-9h2.36l.069,1.073A2.327,2.327,0,0,1,35.165-5.39a2.713,2.713,0,0,1,.778.108Zm3.5-2.254.078,1.04A3.317,3.317,0,0,1,42.175-5.39a2.768,2.768,0,0,1,2.213.84,3.816,3.816,0,0,1,.743,2.512V3.777h-2.5V-1.979a1.521,1.521,0,0,0-.346-1.11,1.587,1.587,0,0,0-1.15-.345,1.732,1.732,0,0,0-1.582.865V3.777h-2.5v-9Zm13.035,9a2.6,2.6,0,0,1-.251-.807,3.079,3.079,0,0,1-2.36.973,3.4,3.4,0,0,1-2.278-.765,2.422,2.422,0,0,1-.9-1.93,2.511,2.511,0,0,1,1.1-2.2,5.6,5.6,0,0,1,3.185-.774h1.15v-.516a1.447,1.447,0,0,0-.333-1,1.337,1.337,0,0,0-1.05-.374,1.528,1.528,0,0,0-.99.291.973.973,0,0,0-.359.8h-2.5a2.355,2.355,0,0,1,.5-1.447,3.3,3.3,0,0,1,1.418-1.044,5.344,5.344,0,0,1,2.057-.378,4.188,4.188,0,0,1,2.744.836A2.873,2.873,0,0,1,54.6-2.2V1.7a4.163,4.163,0,0,0,.372,1.938v.141ZM50.378,2.1a2.22,2.22,0,0,0,1.02-.237,1.592,1.592,0,0,0,.692-.636V-.316h-.934q-1.876,0-2,1.248l-.009.141a.946.946,0,0,0,.328.74A1.307,1.307,0,0,0,50.378,2.1Zm8.774,1.672H56.645V-9h2.507Z" transform="translate(-0.234 9)" fill="#323234"/><path d="M3.466,3.777H.873V-8.335H3.466ZM8-5.224l.078,1.04A3.317,3.317,0,0,1,10.77-5.39a2.768,2.768,0,0,1,2.213.84,3.816,3.816,0,0,1,.743,2.512V3.777h-2.5V-1.979a1.521,1.521,0,0,0-.346-1.11,1.587,1.587,0,0,0-1.15-.345,1.732,1.732,0,0,0-1.582.865V3.777h-2.5v-9ZM18.611-7.436v2.213h1.6V-3.46h-1.6V1.032a1.044,1.044,0,0,0,.2.715,1.024,1.024,0,0,0,.761.216,4.136,4.136,0,0,0,.735-.058V3.727a5.329,5.329,0,0,1-1.513.216,2.343,2.343,0,0,1-2.68-2.554V-3.46H14.747V-5.224h1.366V-7.436Zm7.3,11.379a4.693,4.693,0,0,1-3.35-1.214A4.23,4.23,0,0,1,21.264-.507V-.74a5.266,5.266,0,0,1,.545-2.425,3.9,3.9,0,0,1,1.543-1.647,4.462,4.462,0,0,1,2.278-.578,3.96,3.96,0,0,1,3.021,1.165,4.618,4.618,0,0,1,1.1,3.3V.058H23.8a2.2,2.2,0,0,0,.73,1.414A2.26,2.26,0,0,0,26.07,2,2.739,2.739,0,0,0,28.326,1l1.227,1.323a3.724,3.724,0,0,1-1.521,1.194A5.158,5.158,0,0,1,25.906,3.943Zm-.285-7.395a1.591,1.591,0,0,0-1.206.485,2.461,2.461,0,0,0-.592,1.387H27.3v-.192a1.75,1.75,0,0,0-.449-1.241A1.646,1.646,0,0,0,25.621-3.452Zm8.186,7.228H31.3V-9h2.507Zm4.694,0H35.994V-9H38.5Zm4.694,0H40.687v-9h2.507ZM40.54-7.553a1.162,1.162,0,0,1,.376-.89,1.446,1.446,0,0,1,1.024-.349,1.449,1.449,0,0,1,1.02.349,1.155,1.155,0,0,1,.38.89,1.159,1.159,0,0,1-.385.9,1.452,1.452,0,0,1-1.016.349,1.452,1.452,0,0,1-1.016-.349A1.159,1.159,0,0,1,40.54-7.553ZM44.888-.79a5.137,5.137,0,0,1,1.024-3.336A3.369,3.369,0,0,1,48.674-5.39a2.961,2.961,0,0,1,2.394,1.015l.1-.848h2.265v8.7a3.736,3.736,0,0,1-.558,2.055,3.54,3.54,0,0,1-1.569,1.331,5.7,5.7,0,0,1-2.368.458,5.3,5.3,0,0,1-2.005-.4,3.557,3.557,0,0,1-1.478-1.019l1.106-1.464A2.975,2.975,0,0,0,48.83,5.449a2.193,2.193,0,0,0,1.547-.512,1.879,1.879,0,0,0,.553-1.452V3a2.943,2.943,0,0,1-2.273.94A3.359,3.359,0,0,1,45.93,2.675,5.136,5.136,0,0,1,44.888-.69Zm2.5.179a3.191,3.191,0,0,0,.51,1.92,1.642,1.642,0,0,0,1.4.7,1.752,1.752,0,0,0,1.634-.825V-2.61a1.748,1.748,0,0,0-1.616-.825,1.652,1.652,0,0,0-1.413.708A3.592,3.592,0,0,0,47.386-.611ZM59.661,3.943a4.693,4.693,0,0,1-3.35-1.214A4.23,4.23,0,0,1,55.019-.507V-.74a5.266,5.266,0,0,1,.545-2.425,3.9,3.9,0,0,1,1.543-1.647,4.462,4.462,0,0,1,2.278-.578,3.96,3.96,0,0,1,3.021,1.165,4.618,4.618,0,0,1,1.1,3.3V.058H57.552a2.2,2.2,0,0,0,.73,1.414A2.26,2.26,0,0,0,59.825,2,2.739,2.739,0,0,0,62.081,1l1.227,1.323a3.724,3.724,0,0,1-1.521,1.194A5.158,5.158,0,0,1,59.661,3.943Zm-.285-7.395a1.591,1.591,0,0,0-1.206.485,2.461,2.461,0,0,0-.592,1.387h3.475v-.192A1.749,1.749,0,0,0,60.6-3.013,1.646,1.646,0,0,0,59.376-3.452Zm7.849-1.772.078,1.04A3.317,3.317,0,0,1,69.991-5.39a2.768,2.768,0,0,1,2.213.84,3.816,3.816,0,0,1,.743,2.512V3.777h-2.5V-1.979A1.521,1.521,0,0,0,70.1-3.09a1.587,1.587,0,0,0-1.15-.345,1.732,1.732,0,0,0-1.582.865V3.777h-2.5v-9ZM78.73,2a1.679,1.679,0,0,0,1.124-.366A1.262,1.262,0,0,0,80.3.666h2.343a3,3,0,0,1-.519,1.676,3.384,3.384,0,0,1-1.4,1.181,4.512,4.512,0,0,1-1.958.42,4.142,4.142,0,0,1-3.164-1.227,4.74,4.74,0,0,1-1.158-3.39V-.832A4.687,4.687,0,0,1,75.6-4.151,4.092,4.092,0,0,1,78.756-5.39a4.027,4.027,0,0,1,2.814.961,3.338,3.338,0,0,1,1.076,2.558H80.3a1.618,1.618,0,0,0-.449-1.141,1.529,1.529,0,0,0-1.141-.439,1.525,1.525,0,0,0-1.318.612,3.441,3.441,0,0,0-.445,1.987V-.6a3.484,3.484,0,0,0,.441,2A1.546,1.546,0,0,0,78.73,2Zm9.647,1.938a4.693,4.693,0,0,1-3.35-1.214A4.23,4.23,0,0,1,83.735-.507V-.74a5.266,5.266,0,0,1,.545-2.425,3.9,3.9,0,0,1,1.543-1.647A4.462,4.462,0,0,1,88.1-5.39a3.96,3.96,0,0,1,3.021,1.165,4.618,4.618,0,0,1,1.1,3.3V.058H86.267A2.2,2.2,0,0,0,87,1.473,2.26,2.26,0,0,0,88.541,2,2.739,2.739,0,0,0,90.8,1l1.227,1.323A3.724,3.724,0,0,1,90.5,3.515,5.158,5.158,0,0,1,88.376,3.943Zm-.285-7.395a1.591,1.591,0,0,0-1.206.485,2.461,2.461,0,0,0-.592,1.387h3.475v-.192a1.749,1.749,0,0,0-.449-1.241A1.646,1.646,0,0,0,88.091-3.452Z" transform="translate(10.623 25.594)" fill="#323234"/></g></g></g></svg>