<svg xmlns="http://www.w3.org/2000/svg" xmlns:xlink="http://www.w3.org/1999/xlink" width="200" height="280" viewBox="0 0 200 280">
  <defs>
    <clipPath id="clip-path">
      <rect id="사각형_154755" data-name="사각형 154755" width="66" height="55" transform="translate(0)" fill="none"/>
    </clipPath>
  </defs>
  <g id="그룹_138571" data-name="그룹 138571" transform="translate(-1595 -330)">
    <rect id="사각형_154875" data-name="사각형 154875" width="200" height="280" transform="translate(1595 330)" fill="#fbfbfb"/>
    <g id="구성_요소_55_3" data-name="구성 요소 55 – 3" transform="translate(1661.999 443)">
      <g id="마스크_그룹_131929" data-name="마스크 그룹 131929" clip-path="url(#clip-path)">
        <g id="그룹_138438" data-name="그룹 138438" transform="translate(2.386 5.09)" opacity="0.57" style="mix-blend-mode: luminosity;isolation: isolate">
          <g id="그룹_138186" data-name="그룹 138186" transform="translate(4.314 14.012)">
            <path id="패스_222386" data-name="패스 222386" d="M84.429,58.531V75.442H78.27V55.1a.112.112,0,0,1,.168-.092Z" transform="translate(-78.27 -54.992)" fill="#e5af7a"/>
            <path id="패스_222387" data-name="패스 222387" d="M117.686,65.843H111.8a12.823,12.823,0,0,0-5.23.748,7.815,7.815,0,0,0-3.362,2.8c-.088.131-.17.264-.249.4q-.12-.2-.251-.4a7.81,7.81,0,0,0-3.36-2.8,12.837,12.837,0,0,0-5.232-.748H78.27v2.83a3.158,3.158,0,0,0,3.218,3.095H94.111a12.869,12.869,0,0,1,5.232.748,7.822,7.822,0,0,1,3.36,2.8q.132.2.251.4c.08-.135.162-.268.249-.4a7.828,7.828,0,0,1,3.362-2.8,12.855,12.855,0,0,1,5.23-.748h10.886l4.735-5.925h-9.73Z" transform="translate(-78.27 -45.49)" fill="#72604d"/>
          </g>
          <path id="패스_222388" data-name="패스 222388" d="M105.055,75.8,77.8,63.734a2.837,2.837,0,0,1,.064-5.261l25.433-10.6a4.587,4.587,0,0,1,3.516,0L138.4,61.036ZM85.852,61.19l19.2,8.5,19.2-8.5-19.2-8ZM80.16,63.563l-.008,0Zm.049-4.871,0,0Z" transform="translate(-76.057 -47.522)" fill="#ff9a36"/>
        </g>
      </g>
    </g>
  </g>
</svg>
