<svg xmlns="http://www.w3.org/2000/svg" xmlns:xlink="http://www.w3.org/1999/xlink" width="25" height="10" viewBox="0 0 25 10"><defs><clipPath id="a"><rect width="25" height="10" transform="translate(136 626)" fill="#fff" stroke="#707070" stroke-width="1"/></clipPath></defs><g transform="translate(-136 -626)" clip-path="url(#a)"><g transform="translate(-0.27 0.685)"><path d="M0,.42A11.424,11.424,0,0,1,1.274.154,10.985,10.985,0,0,1,3.01.028a3.983,3.983,0,0,1,1.5.245,2.345,2.345,0,0,1,.959.686,2.616,2.616,0,0,1,.5,1.064,5.951,5.951,0,0,1,.147,1.365V7.5H4.424V3.654a5.6,5.6,0,0,0-.077-1,1.761,1.761,0,0,0-.252-.672A1.014,1.014,0,0,0,3.619,1.6a2.014,2.014,0,0,0-.735-.119,5.636,5.636,0,0,0-.672.042c-.233.028-.406.051-.518.07V7.5H0Z" transform="translate(137.27 627.314)" fill="#ed5644"/><path d="M6.734,3.878a4.606,4.606,0,0,1,.287-1.694A3.523,3.523,0,0,1,7.785.973,3.12,3.12,0,0,1,8.877.245,3.377,3.377,0,0,1,10.135,0a3.021,3.021,0,0,1,2.36.937,4.066,4.066,0,0,1,.846,2.8c0,.093,0,.2-.007.315s-.011.221-.021.315H8.483a1.931,1.931,0,0,0,.623,1.364,2.365,2.365,0,0,0,1.6.484A5.168,5.168,0,0,0,11.836,6.1a4.585,4.585,0,0,0,.8-.237l.225,1.386a2.552,2.552,0,0,1-.386.146,5.237,5.237,0,0,1-.56.141q-.315.063-.678.1a6.266,6.266,0,0,1-.742.042A4.478,4.478,0,0,1,8.819,7.4a3.134,3.134,0,0,1-1.176-.8,3.283,3.283,0,0,1-.685-1.2,4.888,4.888,0,0,1-.224-1.518m4.914-.756a2.207,2.207,0,0,0-.1-.665,1.589,1.589,0,0,0-.287-.546,1.361,1.361,0,0,0-.462-.364,1.465,1.465,0,0,0-.651-.133,1.525,1.525,0,0,0-.685.146,1.565,1.565,0,0,0-.5.386,1.789,1.789,0,0,0-.315.546,2.926,2.926,0,0,0-.153.63Z" transform="translate(137.27 627.314)" fill="#ed5644"/><path d="M18.459,2.9q-.323,1.233-.692,2.4t-.735,2.2h-1.39q-.282-.642-.589-1.469t-.617-1.765q-.309-.937-.618-1.974t-.6-2.114h1.792q.128.59.3,1.268t.351,1.386q.183.706.38,1.378c.131.449.263.859.394,1.233q.21-.645.414-1.33t.386-1.372c.122-.457.236-.9.343-1.337s.2-.843.288-1.226h1.3q.126.575.279,1.226c.1.433.212.88.329,1.337s.242.915.377,1.372.272.9.413,1.33c.121-.374.248-.784.378-1.233s.261-.907.388-1.378.246-.934.359-1.386.211-.875.3-1.268h1.75q-.294,1.078-.6,2.114t-.617,1.974q-.309.939-.618,1.765T21.29,7.5H19.913q-.363-1.035-.748-2.2t-.706-2.4" transform="translate(137.27 627.314)" fill="#ed5644"/></g></g></svg>