<svg xmlns="http://www.w3.org/2000/svg" xmlns:xlink="http://www.w3.org/1999/xlink" width="28" height="28" viewBox="0 0 28 28"><defs><clipPath id="a"><rect width="16" height="16" transform="translate(0 0)" fill="none"/></clipPath><clipPath id="b"><path d="M234.452,125.314v2.854h3.971a3.4,3.4,0,0,1-1.472,2.227v1.851h2.384a7.2,7.2,0,0,0,2.2-5.423,8.474,8.474,0,0,0-.134-1.509Z" transform="translate(-234.452 -125.314)" fill="none"/></clipPath><clipPath id="c"><path d="M99.765,181.352v1.912a7.375,7.375,0,0,0,6.593,4.064,7.044,7.044,0,0,0,4.883-1.787l-2.384-1.851a4.451,4.451,0,0,1-6.627-2.338Z" transform="translate(-99.765 -181.352)" fill="none"/></clipPath><clipPath id="d"><path d="M84.519,85.031a7.387,7.387,0,0,0,0,6.627l2.465-1.912a4.363,4.363,0,0,1,0-2.8V85.031Z" transform="translate(-83.734 -85.031)" fill="none"/></clipPath><clipPath id="e"><path d="M99.765,6.064l2.465,1.911a4.4,4.4,0,0,1,4.128-3.042,3.985,3.985,0,0,1,2.82,1.1l2.116-2.116A7.09,7.09,0,0,0,106.358,2a7.375,7.375,0,0,0-6.593,4.065" transform="translate(-99.765 -1.999)" fill="none"/></clipPath></defs><path d="M14,28h0A14.041,14.041,0,0,1,0,14H0A14.041,14.041,0,0,1,14,0h0A14.041,14.041,0,0,1,28,14h0A14.041,14.041,0,0,1,14,28" fill="none"/><g transform="translate(5.799 5.8)" clip-path="url(#a)"><g transform="translate(0.769 0.745)"><g transform="translate(0 0)"><g transform="translate(7.378 6.036)"><g clip-path="url(#b)"><rect width="15.28" height="15.129" transform="translate(-4.099 -4.099)" fill="#507bbd"/></g></g><g transform="translate(0.785 8.78)"><g clip-path="url(#c)"><rect width="19.673" height="14.174" transform="translate(-4.099 -4.099)" fill="#32a751"/></g></g><g transform="translate(0 4.065)"><g clip-path="url(#d)"><rect width="11.447" height="14.824" transform="translate(-4.099 -4.099)" fill="#f6b916"/></g></g><g transform="translate(0.785)"><g clip-path="url(#e)"><rect width="19.727" height="14.174" transform="translate(-3.418 -0.098)" fill="#e74233"/></g></g></g></g></g></svg>