<svg xmlns="http://www.w3.org/2000/svg" xmlns:xlink="http://www.w3.org/1999/xlink" width="28" height="28" viewBox="0 0 28 28"><defs><clipPath id="a"><rect width="28" height="28" fill="none"/></clipPath></defs><g transform="translate(-770 -715)"><g transform="translate(770 715)"><g transform="translate(0 0)" clip-path="url(#a)"><path d="M14,28h0A14.041,14.041,0,0,1,0,14H0A14.041,14.041,0,0,1,14,0h0A14.041,14.041,0,0,1,28,14h0A14.041,14.041,0,0,1,14,28" transform="translate(0 0)" fill="#fae300"/><path d="M121.15,125.605c-4.222,0-7.644,2.705-7.644,6.043a5.9,5.9,0,0,0,3.626,5.141c-.16.6-.579,2.163-.663,2.5-.1.416.153.41.32.3.131-.087,2.095-1.422,2.942-2a9.678,9.678,0,0,0,1.419.1c4.222,0,7.644-2.706,7.644-6.043s-3.422-6.043-7.644-6.043" transform="translate(-107.15 -118.571)" fill="#391b1b"/></g></g></g></svg>